:SAMPLES-PER-SECOND 30
:FULLY-SPECIFIED
:DEGREES
193
root  -48.0833 31.8037 -16.6355 -165.703 -55.3907 159.806
RightUpLeg  -16.187 -0.840697 -5.39551
RightLeg  80.1532 0.102041 0.0412188
RightFoot  8.54866 0.0293318 -0.0149
RightToes  -29.5465 -0.140811 -0.248802
Spine  6.71572 -3.06911 -2.60035
Spine1  13.5146 -5.81463 -5.43747
HEad  31.2105 -30.0718 19.982
LeftShoulder1  0 -2.42657e-020 -4.95415e-022
LeftArm  -14.552 26.1742 -68.0165
LeftForeArm  -153.261 -52.5396 -12.6859
LeftHand  10.8438 -24.9514 -46.8186
RightShoulder  0 2.42657e-020 1.07489e-018
RightArm  -63.8867 -34.2946 87.3575
RightForeArm  22.8727 65.7352 23.1547
RightHand  -0.402562 18.1007 -2.15765
LeftUpLeg  -21.9983 -8.87383 -10.9007
LeftLeg  34.4247 -7.917 -4.6877
LeftFoot  0.702433 0.000561528 -0.0916134
LeftToes  -21.4383 1.18758e-006 1.19596e-007
194
root  -49.2865 31.5356 -17.6364 -168.004 -53.7081 161.091
RightUpLeg  -21.6937 -0.130717 -5.04065
RightLeg  84.6247 -0.0858962 -1.17022
RightFoot  4.26889 0.0175382 -0.0930009
RightToes  -28.2256 -0.131895 -0.239447
Spine  7.39082 -3.82248 -2.72626
Spine1  14.9172 -7.24788 -5.86532
HEad  30.6159 -26.6135 18.155
LeftShoulder1  0 -2.42657e-020 -4.95415e-022
LeftArm  -14.3387 25.5905 -67.1075
LeftForeArm  -156.3 -50.3707 -11.7005
LeftHand  11.3165 -26.0119 -46.8141
RightShoulder  0 2.42657e-020 1.07489e-018
RightArm  -60.3236 -38.4143 91.5166
RightForeArm  69.7633 79.183 68.7868
RightHand  -1.35916 18.2364 -8.08613
LeftUpLeg  -19.9734 -7.25661 -10.8756
LeftLeg  38.06 -6.91603 -4.71446
LeftFoot  -4.38104 0.0253376 0.662398
LeftToes  -21.549 1.18758e-006 1.19596e-007
195
root  -50.353 31.7344 -18.6971 -169.393 -51.8473 162.411
RightUpLeg  -26.792 -0.0442106 -4.50445
RightLeg  82.8457 -0.583513 -3.55012
RightFoot  1.99192 0.00863636 -0.119191
RightToes  -26.8707 -0.122977 -0.229639
Spine  7.4518 -4.82456 -2.68442
Spine1  15.0845 -9.1904 -6.06968
HEad  33.197 -22.569 15.4984
LeftShoulder1  0 -2.42657e-020 -4.95415e-022
LeftArm  -16.3065 26.006 -68.019
LeftForeArm  -159.586 -47.8831 -10.6794
LeftHand  11.6 -27.0433 -46.1775
RightShoulder  0 2.42657e-020 1.07489e-018
RightArm  -55.0367 -39.9764 94.3267
RightForeArm  142.697 76.3571 132.501
RightHand  -2.52635 19.0238 -14.6287
LeftUpLeg  -16.7005 -7.04401 -10.5624
LeftLeg  37.3376 -5.32101 -3.53802
LeftFoot  -6.62791 0.0436725 0.754203
LeftToes  -21.2577 1.18758e-006 1.19596e-007
196
root  -51.2892 32.2977 -19.8718 -172.26 -49.9576 165.776
RightUpLeg  -29.4247 -0.292345 -2.16591
RightLeg  74.552 -2.38369 -7.06655
RightFoot  -0.0250626 -7.83404e-005 0.0199486
RightToes  -26.6011 -0.12123 -0.227663
Spine  7.43635 -5.53812 -1.8284
Spine1  14.9715 -10.6287 -4.73765
HEad  36.1195 -19.0786 12.9682
LeftShoulder1  0 -2.42657e-020 -4.95415e-022
LeftArm  -17.9319 25.6584 -70.8205
LeftForeArm  -162.9 -45.3437 -9.73659
LeftHand  11.9946 -27.7125 -46.5186
RightShoulder  0 2.42657e-020 1.07489e-018
RightArm  -47.7167 -39.0079 93.895
RightForeArm  171.78 70.763 149.067
RightHand  -3.95093 19.9015 -21.882
LeftUpLeg  -11.7759 -5.69007 -8.62312
LeftLeg  33.1838 -4.67598 -2.64513
LeftFoot  -6.88016 0.0394184 0.655723
LeftToes  -20.6647 1.18758e-006 1.19596e-007
197
root  -52.1009 32.9175 -20.9973 -173.594 -47.7979 168.962
RightUpLeg  -31.4522 -1.05457 0.21972
RightLeg  62.1564 -5.93535 -9.66025
RightFoot  -1.55877 -0.000705113 0.325862
RightToes  -26.9197 -0.123295 -0.229997
Spine  7.04748 -5.66831 -0.920191
Spine1  14.0662 -10.9362 -3.19317
HEad  37.3267 -17.2204 12.1056
LeftShoulder1  0 -2.42657e-020 -4.95415e-022
LeftArm  -18.7488 25.1235 -73.6366
LeftForeArm  -163.509 -45.0298 -9.62628
LeftHand  12.0758 -28.0781 -46.2364
RightShoulder  0 2.42657e-020 1.07489e-018
RightArm  -41.7154 -37.0876 92.7202
RightForeArm  -173.803 68.3103 153.19
RightHand  -4.94488 19.7462 -27.5051
LeftUpLeg  -7.71607 -3.67758 -6.3905
LeftLeg  27.6911 -4.57851 -2.03972
LeftFoot  -5.71399 0.0252684 0.506313
LeftToes  -20.1488 1.18758e-006 1.19596e-007
198
root  -52.8773 33.4272 -22.04 -173.527 -46.0484 171.086
RightUpLeg  -32.1295 -2.49 1.93734
RightLeg  46.5128 -8.49274 -7.82624
RightFoot  -2.02826 0.000650218 0.414423
RightToes  -26.3507 -0.119616 -0.22582
Spine  6.63885 -5.64156 -0.0901232
Spine1  13.1436 -10.951 -1.69752
HEad  36.9359 -16.6098 11.9926
LeftShoulder1  0 -2.42657e-020 -4.95415e-022
LeftArm  -18.3514 23.7011 -76.0687
LeftForeArm  -162.35 -45.6308 -9.8386
LeftHand  11.8212 -28.0478 -45.4062
RightShoulder  0 2.42657e-020 1.07489e-018
RightArm  -36.1533 -33.6689 90.637
RightForeArm  -171.843 68.4986 152.923
RightHand  -5.0992 18.5806 -30.0945
LeftUpLeg  -5.17082 -2.15656 -4.76758
LeftLeg  23.7119 -4.41934 -1.61195
LeftFoot  -3.66809 0.00985862 0.307869
LeftToes  -21.4925 1.18758e-006 1.19596e-007
199
root  -53.753 33.7232 -23.0414 -171.829 -44.9086 170.96
RightUpLeg  -31.6648 -5.4883 2.27162
RightLeg  29.7297 -6.77027 -3.30432
RightFoot  -1.86943 -0.00236397 0.232743
RightToes  -30.9396 -0.150444 -0.258443
Spine  6.13109 -5.54436 0.22235
Spine1  12.0629 -10.817 -1.0724
HEad  36.5176 -17.5139 12.3334
LeftShoulder1  0 -2.42657e-020 -4.95415e-022
LeftArm  -15.4725 21.562 -77.0792
LeftForeArm  -161.462 -46.1505 -10.0262
LeftHand  11.6656 -27.8095 -45.2255
RightShoulder  0 2.42657e-020 1.07489e-018
RightArm  -33.3629 -30.4475 90.217
RightForeArm  -174.322 71.4722 147.722
RightHand  -5.90482 17.4685 -36.7563
LeftUpLeg  -3.58875 -1.72171 -4.92233
LeftLeg  21.6172 -3.91568 -1.26878
LeftFoot  -1.68697 0.00193669 0.131536
LeftToes  -22.4511 1.18758e-006 1.19596e-007
200
root  -54.6379 33.7545 -24.1255 -170.606 -44.0231 170.642
RightUpLeg  -30.8816 -9.3199 3.25941
RightLeg  16.5785 -5.87998 -1.34253
RightFoot  -3.1398 -0.0019639 0.30596
RightToes  -31.0609 -0.151294 -0.259272
Spine  5.61886 -5.04356 0.487624
Spine1  10.9698 -9.90579 -0.406494
HEad  36.4423 -20.1762 12.64
LeftShoulder1  0 -2.42657e-020 -4.95415e-022
LeftArm  -10.7092 18.0392 -77.7752
LeftForeArm  -160.826 -45.5351 -9.80359
LeftHand  11.5967 -27.5609 -45.362
RightShoulder  0 2.42657e-020 1.07489e-018
RightArm  -34.9388 -27.8954 91.2064
RightForeArm  -176.074 75.2219 137.46
RightHand  -6.50129 14.6477 -47.3295
LeftUpLeg  -2.73616 -1.55188 -5.1405
LeftLeg  22.3555 -3.47227 -1.17531
LeftFoot  -1.16903 0.000859767 0.0842649
LeftToes  -24.9108 1.18758e-006 1.19596e-007
201
root  -55.5551 33.5671 -25.3092 -170.21 -43.6819 170.584
RightUpLeg  -30.5669 -14.5025 5.31787
RightLeg  10.2518 -6.67275 -0.764073
RightFoot  -2.90141 -0.00188178 0.303316
RightToes  -28.8087 -0.135804 -0.243602
Spine  5.10259 -4.53329 0.744835
Spine1  9.86392 -8.98281 0.269057
HEad  37.0139 -23.141 12.5364
LeftShoulder1  0 -2.42657e-020 -4.95415e-022
LeftArm  -6.14988 14.0029 -78.9022
LeftForeArm  -160.282 -43.9054 -9.2382
LeftHand  11.5721 -27.6744 -45.1027
RightShoulder  0 2.42657e-020 1.07489e-018
RightArm  -36.2807 -25.67 90.8316
RightForeArm  156.864 79.2191 110.845
RightHand  -6.41739 13.5007 -50.3385
LeftUpLeg  -2.58826 -2.28171 -5.2183
LeftLeg  26.0505 -2.52551 -1.04203
LeftFoot  -1.74508 0.00113781 0.0894511
LeftToes  -28.9679 1.18758e-006 1.19596e-007
202
root  -56.5568 33.2127 -26.6076 -171.605 -42.6751 170.638
RightUpLeg  -29.0257 -14.7421 5.02223
RightLeg  12.5983 -10.5081 -1.63494
RightFoot  -2.67661 0.00188624 0.458408
RightToes  -22.5493 -0.0961213 -0.196997
Spine  5.1248 -4.08936 0.719889
Spine1  9.84567 -8.18708 0.409945
HEad  38.5625 -25.3868 12.6
LeftShoulder1  0 -2.42657e-020 -4.95415e-022
LeftArm  -2.6322 9.50772 -80.1174
LeftForeArm  -160.127 -41.4004 -8.42826
LeftHand  11.4668 -27.6262 -44.8059
RightShoulder  0 2.42657e-020 1.07489e-018
RightArm  -35.7326 -19.8988 88.9245
RightForeArm  88.4043 74.4201 39.4183
RightHand  -6.16111 13.3715 -48.9718
LeftUpLeg  -1.61225 -1.13257 -5.12846
LeftLeg  31.854 -2.26562 -1.21689
LeftFoot  -1.98421 0.00149879 0.0865398
LeftToes  -35.8712 1.18758e-006 1.19596e-007
203
root  -57.492 32.7069 -28.0976 -174.958 -40.6807 172.106
RightUpLeg  -27.261 -13.3414 5.75052
RightLeg  19.0409 -13.3102 -3.61436
RightFoot  -3.35133 0.0112723 0.76303
RightToes  -13.9328 -0.0502804 -0.126342
Spine  5.48231 -3.66001 0.768403
Spine1  10.4648 -7.42362 0.64179
HEad  40.7484 -26.3441 12.6543
LeftShoulder1  0 -2.42657e-020 -4.95415e-022
LeftArm  -1.4448 5.90087 -81.6019
LeftForeArm  -159.672 -38.6617 -7.61247
LeftHand  11.3801 -27.4299 -44.7966
RightShoulder  0 2.42657e-020 1.07489e-018
RightArm  -35.5193 -10.6663 86.6404
RightForeArm  66.3096 52.1292 13.0689
RightHand  -6.38536 15.5653 -44.0498
LeftUpLeg  -1.2182 3.10624 -2.6653
LeftLeg  40.9911 -3.99327 -3.04327
LeftFoot  -0.552426 8.34186e-005 0.0172944
LeftToes  -46.37 1.18758e-006 1.19596e-007
